<?xml version="1.0" encoding="iso-8859-1"?>
<!-- Generator: Adobe Illustrator 19.0.0, SVG Export Plug-In . SVG Version: 6.00 Build 0)  -->
<svg version="1.1" id="Layer_1" xmlns="http://www.w3.org/2000/svg" xmlns:xlink="http://www.w3.org/1999/xlink" x="0px" y="0px"
	 viewBox="0 0 512 512" style="enable-background:new 0 0 512 512;" xml:space="preserve">
<path style="fill:#889391;" d="M503.627,190.862C474.812,81.027,374.874,0,256,0C114.616,0,0,114.616,0,256
	c0,122.624,86.223,225.093,201.345,250.132L503.627,190.862z"/>
<path style="fill:#4C6460;" d="M503.627,190.861l-97.366-97.366l-33.297,27.556l-51.137-51.137l-2.716,37.719l-46.416-46.416
	l-8.291,64.578l-52.127-52.127L128,327.235l-44.522,33.391l73.102,73.102l-11.698,15.941l56.462,56.462
	C218.958,509.963,237.24,512,256,512c141.385,0,256-114.616,256-256C512,233.49,509.084,211.661,503.627,190.861z"/>
<rect x="239.304" y="61.217" style="fill:#F97D85;" width="33.391" height="172.522"/>
<polygon style="fill:#F85C67;" points="190.173,71.029 144.883,449.67 167.302,449.67 212.276,73.668 "/>
<polygon style="fill:#F63341;" points="321.828,69.916 367.117,448.556 344.698,448.556 299.724,72.555 "/>
<polygon style="fill:#FEF2CC;" points="256,93.496 211.478,221.496 256,349.496 406.261,349.496 406.261,93.496 "/>
<rect x="105.739" y="93.496" style="fill:#FFFFFF;" width="150.261" height="256"/>
<polygon style="fill:#F97D85;" points="428.522,327.235 256,327.235 211.478,343.93 256,360.626 428.522,360.626 "/>
<rect x="83.478" y="327.235" style="fill:#FCBEC2;" width="172.522" height="33.391"/>
<polygon style="fill:#FDE59A;" points="339.478,126.887 256,126.887 224.199,210.365 256,293.843 339.478,293.843 "/>
<rect x="172.522" y="126.887" style="fill:#FEF2CC;" width="83.478" height="166.957"/>
<g>
	<polygon style="fill:#263230;" points="286.609,138.017 286.609,115.757 256,115.757 244.87,126.887 256,138.017 	"/>
	<polygon style="fill:#263230;" points="308.87,115.757 308.87,138.017 328.348,138.017 328.348,199.235 256,199.235 
		244.87,210.365 256,221.496 328.348,221.496 328.348,282.713 256,282.713 244.87,293.843 256,304.974 350.609,304.974 
		350.609,115.757 	"/>
</g>
<g>
	<polygon style="fill:#4C6460;" points="239.304,179.757 217.043,179.757 217.043,240.974 239.304,240.974 239.304,221.496 
		256,221.496 256,199.235 239.304,199.235 	"/>
	<polygon style="fill:#4C6460;" points="161.391,115.757 161.391,304.974 256,304.974 256,282.713 239.304,282.713 239.304,263.235 
		217.043,263.235 217.043,282.713 183.652,282.713 183.652,138.017 217.043,138.017 217.043,157.496 239.304,157.496 
		239.304,138.017 256,138.017 256,115.757 	"/>
</g>
<g>
</g>
<g>
</g>
<g>
</g>
<g>
</g>
<g>
</g>
<g>
</g>
<g>
</g>
<g>
</g>
<g>
</g>
<g>
</g>
<g>
</g>
<g>
</g>
<g>
</g>
<g>
</g>
<g>
</g>
</svg>
