<?xml version="1.0" encoding="UTF-8" standalone="no"?> <svg id="flat" xmlns="http://www.w3.org/2000/svg" viewBox="0 0 340 340"><title>38_blueprint</title><path d="M13.253,53.327H320.222a6.526,6.526,0,0,1,6.526,6.526V274.7a6.526,6.526,0,0,1-6.526,6.526H52.368a39.115,39.115,0,0,1-39.115-39.115V53.327A0,0,0,0,1,13.253,53.327Z" style="fill:#a2c4f9"/><path d="M111.833,53.327H13.253V242.113a39.115,39.115,0,0,0,39.115,39.115H169.407Z" style="fill:#6f99dd"/><path d="M258.909,323.167H98.067a9.053,9.053,0,0,1-9.052-9.053h0a9.052,9.052,0,0,1,9.052-9.052H258.909a7.081,7.081,0,0,1,4.125,1.325l10.79,7.727-10.79,7.728A7.088,7.088,0,0,1,258.909,323.167Z" style="fill:#dfe3ea"/><circle cx="252.629" cy="232.805" r="3.429" style="fill:#fff"/><circle cx="271.096" cy="232.805" r="3.429" style="fill:#fff"/><circle cx="289.563" cy="232.805" r="3.429" style="fill:#fff"/><path d="M43.312,16.833h0A30.059,30.059,0,0,0,13.253,46.892v191.6a28.2,28.2,0,0,1,13.539-19.075c10.359-6.257,23.4-6.666,33.589-.135a28.458,28.458,0,0,1,8.039,7.7,2.73,2.73,0,0,0,4.95-1.595V46.892A30.058,30.058,0,0,0,43.312,16.833Z" style="fill:#353644"/><polygon points="95.833 79.81 95.833 251.242 179.89 251.242 179.89 236.126 110.949 236.126 110.949 160.549 174.36 160.549 174.36 145.433 110.949 145.433 110.949 94.925 217.495 94.925 217.495 110.041 232.61 110.041 232.61 94.925 280.906 94.925 280.906 145.433 232.61 145.433 232.61 130.318 217.495 130.318 217.495 160.549 280.906 160.549 280.906 195.941 217.495 195.941 217.495 251.242 232.61 251.242 232.61 211.057 296.022 211.057 296.022 79.81 95.833 79.81" style="fill:#fff"/><rect x="159.247" y="160.549" width="15.115" height="40.397" style="fill:#fff"/><path d="M258.909,305.062h-1.593v18.1h1.593a7.088,7.088,0,0,0,4.125-1.325l10.79-7.728-10.79-7.727A7.081,7.081,0,0,0,258.909,305.062Z" style="fill:#9bacbf"/><rect x="110.134" y="305.062" width="9.109" height="18.105" style="fill:#9bacbf"/></svg>
