<?xml version="1.0" encoding="UTF-8" standalone="no"?> <svg id="Capa_1" enable-background="new 0 0 512 512" height="512" viewBox="0 0 512 512" width="512" xmlns="http://www.w3.org/2000/svg"><g><g><g><path d="m436 512h-360c-8.284 0-15-6.716-15-15v-422c0-8.284 6.716-15 15-15h360c8.284 0 15 6.716 15 15v422c0 8.284-6.716 15-15 15z" fill="#93c6ec"/></g><path d="m451 497v-422c0-8.284-6.716-15-15-15h-180v452h180c8.284 0 15-6.716 15-15z" fill="#6ba7ff"/><path d="m91 90h330v392h-330z" fill="#fffbf4"/><g><path d="m256 90h165v392h-165z" fill="#f9f4c8"/></g><path d="m346 117h-180c-4.52 0-8.798-2.038-11.646-5.547s-3.962-8.115-3.033-12.538l6.538-31.113c3.386-16.111 17.791-27.802 34.252-27.802h14.677l-5.34-21.362c-1.121-4.48-.114-9.229 2.729-12.869s7.204-5.769 11.823-5.769h80c4.619 0 8.98 2.128 11.823 5.769s3.85 8.389 2.729 12.869l-5.34 21.362h14.677c16.461 0 30.866 11.691 34.252 27.801l6.539 31.114c.929 4.423-.186 9.029-3.033 12.538-2.849 3.509-7.127 5.547-11.647 5.547z" fill="#ffe278"/><path d="m346 117c4.52 0 8.798-2.038 11.646-5.547s3.962-8.115 3.033-12.538l-6.539-31.114c-3.385-16.11-17.79-27.801-34.251-27.801h-14.677l5.34-21.362c1.121-4.48.114-9.229-2.729-12.869s-7.204-5.769-11.823-5.769h-40v117z" fill="#ffd845"/></g><g><g><path d="m333.574 229.213c-3.839 0-7.678-1.465-10.606-4.394l-21.213-21.213c-5.858-5.857-5.858-15.355 0-21.213 5.858-5.857 15.356-5.857 21.213 0l10.606 10.607 31.82-31.819c5.858-5.857 15.355-5.859 21.213 0 5.858 5.857 5.858 15.355 0 21.213l-42.426 42.426c-2.93 2.928-6.768 4.393-10.607 4.393z" fill="#3c4655"/></g><g><path d="m333.574 305.213c-3.839 0-7.678-1.465-10.606-4.394l-21.213-21.213c-5.858-5.857-5.858-15.355 0-21.213 5.858-5.857 15.356-5.857 21.213 0l10.606 10.607 31.82-31.819c5.858-5.857 15.355-5.859 21.213 0 5.858 5.857 5.858 15.355 0 21.213l-42.426 42.426c-2.93 2.928-6.768 4.393-10.607 4.393z" fill="#3c4655"/></g><g><path d="m256 208h-120c-8.284 0-15-6.716-15-15s6.716-15 15-15h120c8.284 0 15 6.716 15 15s-6.716 15-15 15z" fill="#556e82"/></g><g><path d="m256 284h-120c-8.284 0-15-6.716-15-15s6.716-15 15-15h120c8.284 0 15 6.716 15 15s-6.716 15-15 15z" fill="#556e82"/></g><g><path d="m256 360h-120c-8.284 0-15-6.716-15-15s6.716-15 15-15h120c8.284 0 15 6.716 15 15s-6.716 15-15 15z" fill="#556e82"/></g><g><g><path d="m256 436h-120c-8.284 0-15-6.716-15-15s6.716-15 15-15h120c8.284 0 15 6.716 15 15s-6.716 15-15 15z" fill="#556e82"/></g></g><g fill="#3c4655"><path d="m271 193c0-8.284-6.716-15-15-15v30c8.284 0 15-6.716 15-15z"/><path d="m256 254v30c8.284 0 15-6.716 15-15s-6.716-15-15-15z"/><path d="m256 330v30c8.284 0 15-6.716 15-15s-6.716-15-15-15z"/><path d="m256 406v30c8.284 0 15-6.716 15-15s-6.716-15-15-15z"/></g></g></g></svg>